# xmcd
#
# Track frame offsets: 
#        150
#        22724
#        44737
#        68221
#        91373
#        114151
#        136066
#        156931
#        177988
#        201024
#        220585
#        248494
#        270145
#        291592
#        311425
#
# Disc length: 4441 seconds
#
# Revision: 0
# Processed by: cddbd v1.5.2PL0 Copyright (c) Steve Scherf et al.
# Submitted via: ExactAudioCopyFreeDBPlugin 1.0
#
DISCID=c711570f
DTITLE=LAHARI - SONDHAM16JADIKETHAMOODIAYUSU100
DYEAR=1988
DGENRE=Ambient
TTITLE0=SPB - SONDHAM16-Amman
TTITLE1=MANO CHI - or iravil
TTITLE2=mano chi - kudhirai
TTITLE3=CHORUS - ayiram
TTITLE4=KJY - sondham
TTITLE5=SPB SJ - JADIKETHA MOODI- Thali
TTITLE6=SPB SJ - Andha
TTITLE7=SPB SJ - Vittu
TTITLE8=SPB SJ - 12mani
TTITLE9=SPB - Meesa
TTITLE10=MV SJ - AYUSU100-Avani
TTITLE11=MANO CHI - Brahma
TTITLE12=GA - Kummi
TTITLE13=PJ - Ettri
TTITLE14=MANO VJ - Chinna
EXTD=
EXTT0=
EXTT1=
EXTT2=
EXTT3=
EXTT4=
EXTT5=
EXTT6=
EXTT7=
EXTT8=
EXTT9=
EXTT10=
EXTT11=
EXTT12=
EXTT13=
EXTT14=
PLAYORDER=
